<?xml version="1.0" encoding="utf-8"?>
<!-- Generator: Adobe Illustrator 13.0.0, SVG Export Plug-In  -->
<!DOCTYPE svg PUBLIC "-//W3C//DTD SVG 1.1//EN" "http://www.w3.org/Graphics/SVG/1.1/DTD/svg11.dtd" [
	<!ENTITY ns_flows "http://ns.adobe.com/Flows/1.0/">
]>
<svg version="1.1"
	 xmlns="http://www.w3.org/2000/svg" xmlns:xlink="http://www.w3.org/1999/xlink" xmlns:a="http://ns.adobe.com/AdobeSVGViewerExtensions/3.0/"
	 x="0px" y="0px" width="75px" height="75px" viewBox="24.643 19.357 500 500" enable-background="new 24.643 19.357 500 500"
	 xml:space="preserve">
<defs>
</defs>
<rect fill="#FFFFFF" width="572.857" height="534.286"/>
<rect x="32.309" y="27.357" fill="none" stroke="#0066FF" stroke-width="9" width="484.619" height="484.619"/>
<rect x="72.477" y="67.356" fill="none" stroke="#0066FF" stroke-width="9" width="404.167" height="404.167"/>
<path d="M233.866,329.632c-7.734,7.335-17.535,11-29.4,11c-9.869,0-18.334-2.73-25.4-8.199c-6.8-5.466-11.334-13.131-13.6-23h8.8
	c1.731,6.534,5.531,12,11.4,16.4c5.731,4.399,12,6.6,18.8,6.6c8.8,0,16.332-3,22.6-9c6.266-6.266,9.4-13.731,9.4-22.4
	c0-10.8-3.869-19.266-11.6-25.4c-5.869-4.665-11.869-7-18-7h-8.4v-11.8h8.4c8.4,0,15.131-2.332,20.2-7
	c4.931-4.531,7.4-11.131,7.4-19.8c0-8.266-2.668-15-8-20.2c-5.334-5.332-12.2-8-20.6-8c-16,0-25.669,8.4-29,25.2h-9.4
	c1.2-10.4,5.266-18.531,12.2-24.4c6.931-6,15.666-9,26.2-9c10.931,0,20.065,3.334,27.4,10c7.331,6.534,11,15.334,11,26.4
	c0,17.734-8.935,28.6-26.8,32.6c18.666,5.6,28,18.4,28,38.4C245.466,312.902,241.597,322.433,233.866,329.632z"/>
<path d="M365.266,318.033c-12,14.4-27.668,21.6-47,21.6h-47.6V196.833h47.6c19.201,0,34.801,7.2,46.801,21.6
	c11.33,13.469,17,30,17,49.6C382.067,287.767,376.467,304.433,365.266,318.033z M359.266,224.033c-10.4-12.8-24.068-19.2-41-19.2
	h-39.6v126.6h39.6c14.666,0,27.4-5.466,38.201-16.4c11.6-11.73,17.398-27.4,17.398-47
	C373.866,250.567,368.999,235.901,359.266,224.033z"/>
<line fill="none" stroke="#0066FF" stroke-width="9" x1="32.644" y1="27.769" x2="72.978" y2="67.828"/>
<line fill="none" stroke="#0066FF" stroke-width="9" x1="515.655" y1="28.838" x2="476.595" y2="67.637"/>
<line fill="none" stroke="#0066FF" stroke-width="9" x1="514.443" y1="509.186" x2="476.163" y2="470.993"/>
<line fill="none" stroke="#0066FF" stroke-width="9" x1="33.52" y1="510.917" x2="73.358" y2="470.473"/>
</svg>
